<?xml version="1.0" encoding="utf-8"?>
<svg id="master-artboard" viewBox="0 0 1400 980" version="1.1" xmlns="http://www.w3.org/2000/svg" x="0px" y="0px" style="enable-background:new 0 0 1400 980;" width="1400px" height="980px" xmlns:xlink="http://www.w3.org/1999/xlink"><rect id="ee-background" x="0" y="0" width="1400" height="980" style="fill: white; fill-opacity: 0; pointer-events: none;"/>

<g transform="matrix(1.0301511219696429, 0, 0, 1.0301511219696429, -38.47908760382804, -13.39548688863444)">
		<defs>
			<path d="M 0 0 H 1400 V 980 H 0 V 0 Z" id="SVGID_1_"/>
		</defs>
		<clipPath id="SVGID_2_">
			<use style="overflow:visible;" xlink:href="#SVGID_1_"/>
		</clipPath>
		<g class="st0" style="clip-path: url('#SVGID_2_');">
			<g>
				<defs>
					<path d="M -4.1 -418.299988 H 1395.9 V 981.700012 H -4.1 V -418.299988 Z" id="SVGID_3_"/>
				</defs>
				<use style="overflow:visible;fill:#FFFFFF;" xlink:href="#SVGID_3_"/>
				<clipPath id="SVGID_4_">
					<use style="overflow:visible;" xlink:href="#SVGID_3_"/>
				</clipPath>
				<g class="st1" style="clip-path: url('#SVGID_4_');">
					<g>
						<path class="st2" d="M38.2,996.9c1,0,2,0.2,2.9,0.2c-3.6-6.8-7.3-13.6-10.7-20.6c-4.7,6.8-9.2,13.6-13.8,20.4&#10;&#9;&#9;&#9;&#9;&#9;&#9;&#9;C23.7,996.8,30.9,996.6,38.2,996.9z" style="fill: rgb(20, 82, 163);"/>
						<path class="st3" d="M16.6,996.9c4.6-6.8,9.1-13.6,13.8-20.4C6.7,930.3-15,883.4-34.7,835.8c0.6,18.1,0.6,36.4-0.3,55&#10;&#9;&#9;&#9;&#9;&#9;&#9;&#9;c-0.6,11.8-1.6,23.9-2.6,35.8c10.7,24,22,47.9,33.7,71.5C2.8,997.5,9.7,997.2,16.6,996.9z" style="fill: rgb(22, 85, 165);"/>
						<path class="st4" d="M97.2,1002.2c-12.9-22.4-25.2-44.9-37-67.7c-10.1,13.9-20,27.8-29.8,42c3.5,7,7.1,13.8,10.7,20.6&#10;&#9;&#9;&#9;&#9;&#9;&#9;&#9;C59.9,997.8,78.6,999.8,97.2,1002.2z" style="fill: rgb(34, 149, 204);"/>
						<path class="st5" d="M-28.9,733.7c-1.4,5-2.9,9.8-4.5,14.7c-2.2,6.2-4.5,12.2-6.7,18.3c2.6,23,4.5,46,5.4,69.1&#10;&#9;&#9;&#9;&#9;&#9;&#9;&#9;c19.7,47.6,41.4,94.5,65.1,140.8c9.8-14.2,19.7-28.1,29.8-42C26.3,869-3.4,802-28.9,733.7z" style="fill: rgb(31, 135, 198);"/>
						<path class="st6" d="M130.1,1006.8c11.3,0.9,22.8,1.5,34.2,2.1c-24.8-39.6-48.2-79.8-69.7-120.8&#10;&#9;&#9;&#9;&#9;&#9;&#9;&#9;c-11.6,15.3-23.1,30.7-34.4,46.4c11.8,22.8,24.2,45.4,37,67.7C108.2,1003.6,119.2,1005.1,130.1,1006.8z" style="fill: rgb(1, 101, 156);"/>
						<path class="st7" d="M-14.1,635.9c-3.1,32.1-6.2,66.5-14.8,97.8C-3.4,802,26.3,869,60.2,934.5c11.3-15.7,22.8-31.1,34.4-46.4&#10;&#9;&#9;&#9;&#9;&#9;&#9;&#9;C51.7,806.6,15.3,722.4-14.1,635.9z" style="fill: rgb(8, 120, 176);"/>
						<path class="st8" d="M-27.4-362.1c2.9-9.1,5.7-18.1,8.8-27.1c-3,3.1-6,6.3-8.9,9.4C-27.4-373.9-27.3-368-27.4-362.1z" style="fill: rgb(3, 114, 174);"/>
						<path class="st9" d="M-25.6-439.4c-1.5,3.9-3,7.6-4.5,11.5c1.4,16,2.3,32.1,2.6,48.1c2.9-3.1,5.9-6.3,8.9-9.4&#10;&#9;&#9;&#9;&#9;&#9;&#9;&#9;c5.4-16.3,11.4-32.4,17.5-48.6C-9.3-438-17.5-438.6-25.6-439.4z" style="fill: rgb(237, 242, 249);"/>
						<path class="st10" d="M240.9,1009.9c-38.7-55.8-74.2-113.5-106.1-173c-13.6,16.8-27,33.9-40.1,51.1&#10;&#9;&#9;&#9;&#9;&#9;&#9;&#9;c21.5,41,44.9,81.2,69.7,120.8C189.8,1009.9,215.3,1010.1,240.9,1009.9z" style="fill: rgb(38, 151, 201);"/>
						<path class="st11" d="M-24.8,411.1c-3.8,5.3-7.5,10.6-11.2,16c19.8,60,31.2,122.5,24.1,186.9c-0.8,7.1-1.5,14.5-2.2,21.9&#10;&#9;&#9;&#9;&#9;&#9;&#9;&#9;c29.4,86.5,65.8,170.7,108.7,252.2c13.2-17.2,26.5-34.3,40.1-51.1C62.5,702.4,8.2,559.4-24.8,411.1z" style="fill: rgb(254, 254, 254);"/>
						<path class="st12" d="M-36,427.1c3.7-5.4,7.4-10.7,11.2-16c-3.2-14.2-6.1-28.6-8.8-42.9c-1.2,13-2.5,25.9-3.9,38.9&#10;&#9;&#9;&#9;&#9;&#9;&#9;&#9;c-0.5,3.8-0.9,7.6-1.4,11.5C-38,421.4-37,424.2-36,427.1z" style="fill: rgb(238, 245, 249);"/>
						<path class="st13" d="M-33.5-215.8c5.4-27.1,11.4-54.4,18.3-81.6c-6.4,6.7-12.6,13.5-18.9,20.2c-1.4,11.2-2.9,22.4-4.5,33.5&#10;&#9;&#9;&#9;&#9;&#9;&#9;&#9;C-36.4-234.6-34.7-225.2-33.5-215.8z" style="fill: rgb(82, 137, 185);"/>
						<path class="st14" d="M-18.6-389.2c-3.1,9-6,18.1-8.8,27.1c-0.2,21.4-1.4,42.8-4,64.2c-0.8,6.9-1.7,13.8-2.6,20.6&#10;&#9;&#9;&#9;&#9;&#9;&#9;&#9;c6.3-6.7,12.5-13.5,18.9-20.2c11.5-45.4,25.1-90.7,41-136.1C10.8-419-4-404.2-18.6-389.2z" style="fill: rgb(6, 123, 186);"/>
						<path class="st15" d="M-1.1-437.8c-6,16.2-12,32.4-17.5,48.6c14.6-15,29.4-29.8,44.4-44.3c0.5-1.6,1.1-3.2,1.7-4.8&#10;&#9;&#9;&#9;&#9;&#9;&#9;&#9;C18-437.7,8.4-437.5-1.1-437.8z" style="fill: rgb(0, 89, 159);"/>
						<path class="st16" d="M301.4,1009.6h33c-56.8-72.4-108.1-149.1-152.5-229.4c-16,18.6-31.7,37.5-47.2,56.7&#10;&#9;&#9;&#9;&#9;&#9;&#9;&#9;c31.9,59.4,67.4,117.2,106.1,173C261.1,1009.9,281.3,1009.6,301.4,1009.6z" style="fill: rgb(225, 234, 243);"/>
						<path class="st17" d="M-24.8,411.1C8.2,559.4,62.5,702.4,134.7,837c15.4-19.2,31.2-38.1,47.2-56.7&#10;&#9;&#9;&#9;&#9;&#9;&#9;&#9;C107.9,646.5,52.3,502.8,19,352.9C4,371.8-10.6,391.3-24.8,411.1z" style="fill: rgb(192, 210, 231);"/>
						<path class="st18" d="M-16.2,47.5c-2.6,3-5.1,6.1-7.6,9.2c-0.5,13.1-1.5,26.2-3.1,39.2c-3.2,26.8-6.3,53.7-10.2,80.7&#10;&#9;&#9;&#9;&#9;&#9;&#9;&#9;c2.1,17.8,4.1,35.5,5.5,53.2c3.9,46.6,2,92.3-2.1,138.3c2.7,14.4,5.7,28.7,8.8,42.9C-10.6,391.3,4,371.8,19,352.9&#10;&#9;&#9;&#9;&#9;&#9;&#9;&#9;C-2.9,253.5-15.1,151.4-16.2,47.5z" style="fill: rgb(161, 186, 219);"/>
						<path class="st19" d="M-1.3-176.5c-10,10.7-19.8,21.5-29.5,32.4c1.6,66.9,9.9,134,7,200.9c2.6-3.1,5.1-6.2,7.6-9.2&#10;&#9;&#9;&#9;&#9;&#9;&#9;&#9;C-16.9-26.4-12.1-101.1-1.3-176.5z" style="fill: rgb(145, 174, 211);"/>
						<path class="st20" d="M-15.2-297.4c-6.9,27.3-12.9,54.5-18.3,81.6c1.7,13.2,2.6,26.7,2.5,40.3c-0.2,10.5-0.1,20.9,0.2,31.4&#10;&#9;&#9;&#9;&#9;&#9;&#9;&#9;c9.7-10.9,19.5-21.7,29.5-32.4c8.1-56.3,19.5-112.9,34.5-169.7C16.8-330.3,0.7-314.1-15.2-297.4z" style="fill: rgb(142, 182, 214);"/>
						<path class="st21" d="M31.3-438.6c-1.8,1.7-3.7,3.3-5.4,5.1c-16,45.4-29.6,90.7-41,136.1c15.9-16.6,32-32.9,48.4-48.8&#10;&#9;&#9;&#9;&#9;&#9;&#9;&#9;c8.5-32.1,18.1-64.1,28.9-96.2C51.9-440.6,41.6-439.3,31.3-438.6z" style="fill: rgb(110, 172, 204);"/>
						<path class="st22" d="M454.1,1009.6c-82-89-155-187-216-292.4c-19,20.6-37.8,41.6-56.2,63c44.4,80.3,95.7,156.9,152.5,229.4&#10;&#9;&#9;&#9;&#9;&#9;&#9;&#9;H454.1z" style="fill: rgb(172, 200, 238);"/>
						<path class="st23" d="M19,352.9c33.3,150,88.9,293.6,162.9,427.4c18.4-21.5,37.2-42.5,56.2-63&#10;&#9;&#9;&#9;&#9;&#9;&#9;&#9;C162,585.4,104.4,442.1,70.6,290.8C52.9,310.9,35.8,331.6,19,352.9z" style="fill: rgb(120, 158, 219);"/>
						<path class="st24" d="M-16.2,47.5c1.1,103.9,13.2,206,35.2,305.4c16.8-21.3,33.9-42,51.6-62.1C48.7,193.2,36.8,92.3,36.2-11&#10;&#9;&#9;&#9;&#9;&#9;&#9;&#9;C18.4,7.9,0.9,27.5-16.2,47.5z" style="fill: rgb(206, 225, 241);"/>
						<path class="st25" d="M-1.3-176.5c-10.8,75.4-15.6,150.1-14.9,224C0.9,27.5,18.4,7.9,36.2-11c-0.5-72.2,4.7-145.4,15.9-219.6&#10;&#9;&#9;&#9;&#9;&#9;&#9;&#9;C34-213.1,16.2-195-1.3-176.5z" style="fill: rgb(213, 232, 242);"/>
						<path class="st26" d="M33.2-346.2c-15,56.8-26.4,113.4-34.5,169.7C16.2-195,34-213.1,52.1-230.6C60.3-285.3,71.9-340.5,87-396&#10;&#9;&#9;&#9;&#9;&#9;&#9;&#9;C68.7-379.8,50.8-363.3,33.2-346.2z" style="fill: rgb(197, 224, 237);"/>
						<path class="st27" d="M101.7-451.8c-13.1,4-26.3,7.1-39.6,9.4c-10.7,32.1-20.4,64.2-28.9,96.2C50.8-363.3,68.7-379.8,87-396&#10;&#9;&#9;&#9;&#9;&#9;&#9;&#9;c5-18.4,10.5-37,16.3-55.5C102.8-451.6,102.2-451.6,101.7-451.8z" style="fill: rgb(190, 219, 235);"/>
						<path class="st28" d="M507.4,1009.6c36.4,0,72.7,0,109.2,0.2c-119.7-103-225.6-225-310.5-362.9c-23.1,22.8-45.7,46.3-68,70.3&#10;&#9;&#9;&#9;&#9;&#9;&#9;&#9;c60.9,105.4,134,203.3,216,292.4H507.4z" style="fill: rgb(255, 255, 255);"/>
						<path class="st29" d="M70.6,290.8c33.8,151.3,91.5,294.6,167.6,426.5c22.2-24,44.9-47.5,68-70.3&#10;&#9;&#9;&#9;&#9;&#9;&#9;&#9;C227.3,518.7,166.8,377.1,131.5,225C110.7,246.2,90.4,268.1,70.6,290.8z" style="fill: rgb(247, 251, 254);"/>
						<path class="st30" d="M36.2-11c0.6,103.3,12.5,204.2,34.3,301.8c19.8-22.7,40.1-44.6,60.9-65.8&#10;&#9;&#9;&#9;&#9;&#9;&#9;&#9;C109.4,129.8,97.2,30.6,96.6-71.7C76-52.1,55.9-31.9,36.2-11z" style="fill: rgb(241, 248, 252);"/>
						<path class="st31" d="M52.1-230.6C40.9-156.5,35.8-83.2,36.2-11C55.9-31.9,76-52.1,96.6-71.7c-0.4-70.1,4.7-141.7,15.8-214.3&#10;&#9;&#9;&#9;&#9;&#9;&#9;&#9;C91.9-268.2,71.8-249.7,52.1-230.6z" style="fill: rgb(236, 246, 251);"/>
						<path class="st32" d="M144-444.5c-19.4,15.6-38.3,31.8-57.1,48.5c-15,55.5-26.6,110.7-34.8,165.4c19.7-19,39.8-37.6,60.2-55.4&#10;&#9;&#9;&#9;&#9;&#9;&#9;&#9;c8-52.2,19.1-104.9,33.6-158.1C145.3-444.3,144.6-444.4,144-444.5z" style="fill: rgb(241, 248, 251);"/>
						<path class="st33" d="M103.3-451.5C97.5-433,91.9-414.5,87-396c18.7-16.6,37.7-32.8,57.1-48.5&#10;&#9;&#9;&#9;&#9;&#9;&#9;&#9;C130.4-446.7,116.9-449.2,103.3-451.5z" style="fill: rgb(250, 252, 253);"/>
						<path class="st34" d="M616.6,1009.8c85.7,0,171.4,0.3,257.2,1.1c-185.4-102.7-356-252.3-484.3-442.4&#10;&#9;&#9;&#9;&#9;&#9;&#9;&#9;c-28.3,25.4-56.1,51.6-83.3,78.5C390.9,784.8,496.9,906.8,616.6,1009.8z" style="fill: rgb(253, 254, 255);"/>
						<path class="st35" d="M131.5,225c35.3,151.9,95.8,293.7,174.6,421.9c27.2-26.9,55-53.1,83.3-78.5&#10;&#9;&#9;&#9;&#9;&#9;&#9;&#9;c-82.5-122.2-147.2-260.8-185.3-412.6C179.3,177.9,155.1,201,131.5,225z" style="fill: rgb(252, 253, 252);"/>
						<path class="st36" d="M96.6-71.7c0.6,102.4,12.9,201.5,34.9,296.7c23.7-24,47.9-47.1,72.6-69.2C181,63.8,167.7-33.1,166.4-134&#10;&#9;&#9;&#9;&#9;&#9;&#9;&#9;C142.6-114.1,119.3-93.3,96.6-71.7z" style="fill: rgb(252, 254, 254);"/>
						<path class="st28" d="M112.4-286c-11.1,72.6-16.2,144.2-15.8,214.3c22.8-21.6,46-42.4,69.8-62.3&#10;&#9;&#9;&#9;&#9;&#9;&#9;&#9;c-0.9-67.8,3.6-137.4,14.1-208.4C157.4-324.3,134.7-305.6,112.4-286z" style="fill: rgb(255, 255, 255);"/>
						<path class="st28" d="M145.9-444.2c-14.4,53.2-25.6,105.9-33.6,158.1c22.3-19.6,45.1-38.3,68.2-56.4c4.6-31,10.5-62.4,17.5-94&#10;&#9;&#9;&#9;&#9;&#9;&#9;&#9;C180.5-438.6,163.2-441.3,145.9-444.2z" style="fill: rgb(255, 255, 255);"/>
						<path class="st28" d="M204.1,155.8c38.1,151.9,102.8,290.5,185.3,412.6c33.9-30.2,68.6-59.4,103.9-87.5&#10;&#9;&#9;&#9;&#9;&#9;&#9;&#9;C405.7,368.1,334.5,234.9,291.3,84C261.6,106.6,232.5,130.6,204.1,155.8z" style="fill: rgb(255, 255, 255);"/>
						<path class="st28" d="M166.4-134c1.3,100.9,14.6,197.8,37.7,289.8c28.3-25.2,57.5-49.2,87.2-71.8&#10;&#9;&#9;&#9;&#9;&#9;&#9;&#9;c-25.2-88.1-40.7-182.1-43.8-281.4C219.9-177.4,192.9-156.2,166.4-134z" style="fill: rgb(255, 255, 255);"/>
						<path class="st28" d="M180.5-342.4c-10.6,71.1-15,140.6-14.1,208.4c26.5-22.2,53.5-43.4,81-63.3&#10;&#9;&#9;&#9;&#9;&#9;&#9;&#9;c-2.1-65.1,1.1-132.4,10.4-201.8C231.6-381.1,205.9-362.2,180.5-342.4z" style="fill: rgb(255, 255, 255);"/>
						<path class="st28" d="M204.5-435.5c-2.1-0.3-4.3-0.6-6.4-0.9c-7,31.6-12.9,63-17.5,94c25.3-19.8,51.1-38.7,77.3-56.7&#10;&#9;&#9;&#9;&#9;&#9;&#9;&#9;c1.4-10.6,3-21.3,4.7-32.1C243.1-431.8,223.8-433.1,204.5-435.5z" style="fill: rgb(255, 255, 255);"/>
						<path class="st28" d="M291.3,84c43.2,150.9,114.4,284.1,202.1,396.9c43.1-34,87.3-66.4,132.5-96.8&#10;&#9;&#9;&#9;&#9;&#9;&#9;&#9;c-95.7-99.2-177.4-224.3-229.2-373.2C360.8,33.4,325.6,57.9,291.3,84z" style="fill: rgb(255, 255, 255);"/>
						<path class="st28" d="M247.4-197.3C250.6-98.1,266.1-4.1,291.3,84c34.3-26.2,69.5-50.6,105.4-73.1&#10;&#9;&#9;&#9;&#9;&#9;&#9;&#9;c-28.9-83.2-48.2-173.9-55-271.4C309.7-240.8,278.3-219.8,247.4-197.3z" style="fill: rgb(255, 255, 255);"/>
						<path class="st28" d="M343-430.2c-4,0-8,0-12.1,0c-8.6-0.1-17.3-0.1-25.9-0.1c-15.9,10.1-31.6,20.4-47.2,31.1&#10;&#9;&#9;&#9;&#9;&#9;&#9;&#9;c-9.3,69.3-12.5,136.7-10.4,201.8c30.8-22.5,62.3-43.5,94.3-63.1C337.9-315,338.2-371.6,343-430.2z" style="fill: rgb(255, 255, 255);"/>
						<path class="st28" d="M262.5-431.2c-1.7,10.7-3.3,21.5-4.7,32.1c15.6-10.7,31.3-21.1,47.2-31.1&#10;&#9;&#9;&#9;&#9;&#9;&#9;&#9;C290.8-430.4,276.6-430.6,262.5-431.2z" style="fill: rgb(255, 255, 255);"/>
					</g>
					<g>
						<path class="st37" d="M1419.9,959.9c-143.5-12.4-290.7-57.9-428.4-136.1c-7.7,14.7-15.3,29.5-22.8,44.1&#10;&#9;&#9;&#9;&#9;&#9;&#9;&#9;c117.2,70.3,242.6,118.2,368.4,142.6c29.3-0.9,58.5-1.7,87.8-2.6C1423,991.9,1421.3,975.9,1419.9,959.9z" style="fill: rgb(23, 115, 182);"/>
						<path class="st2" d="M705.6,595.5c84.9,93.1,182.6,169.8,285.9,228.3c-7.7,14.7-15.3,29.5-22.8,44.1&#10;&#9;&#9;&#9;&#9;&#9;&#9;&#9;c-112.5-67.4-217.3-155.1-306.1-260.8C677.1,603.5,691.4,599.6,705.6,595.5z" style="fill: rgb(20, 82, 163);"/>
						<path class="st3" d="M552.8,383.3c43.2,77.9,95.1,148.9,152.9,212.3c-14.2,4.1-28.5,8-42.9,11.6&#10;&#9;&#9;&#9;&#9;&#9;&#9;&#9;c-59.2-70.3-111.2-148.6-153.2-233.7C523.9,376.9,538.3,380.2,552.8,383.3z" style="fill: rgb(22, 85, 165);"/>
						<path class="st38" d="M473.3,203.5c21.2,63.3,48.1,123.3,79.4,179.7c-14.4-3-28.9-6.3-43.3-9.8&#10;&#9;&#9;&#9;&#9;&#9;&#9;&#9;c-30.1-60.9-55-125.2-73.8-192.7C448.1,188.6,460.7,196.3,473.3,203.5z" style="fill: rgb(14, 120, 174);"/>
						<path class="st39" d="M435.1,54.3c9.1,51.5,22.1,101.3,38.2,149.2c-12.6-7.3-25.2-14.9-37.6-22.8&#10;&#9;&#9;&#9;&#9;&#9;&#9;&#9;C421.6,130.2,411,78,404.4,24.1C414.5,34.4,424.7,44.5,435.1,54.3z" style="fill: rgb(34, 139, 189);"/>
						<path class="st40" d="M420.5-69.9c2.4,42.3,7.3,83.8,14.6,124.2c-10.4-9.8-20.6-19.9-30.7-30.2c-5.1-41.9-7.9-84.7-7.9-128.4&#10;&#9;&#9;&#9;&#9;&#9;&#9;&#9;C404.2-92.5,412.2-81,420.5-69.9z" style="fill: rgb(61, 168, 213);"/>
						<path class="st41" d="M419.6-173.9c-1.4,35.2-1.1,69.9,0.8,104c-8.2-11.1-16.3-22.6-24-34.3c-0.1-34.8,1.5-70.3,4.9-106.1&#10;&#9;&#9;&#9;&#9;&#9;&#9;&#9;C407.2-198,413.4-185.9,419.6-173.9z" style="fill: rgb(64, 174, 220);"/>
						<path class="st42" d="M426.9-262.1c-3.6,29.7-6,59.1-7.3,88.1c-6.3-11.9-12.4-24-18.3-36.4c2.8-29.4,6.8-59,12.1-89&#10;&#9;&#9;&#9;&#9;&#9;&#9;&#9;C417.8-286.7,422.2-274.3,426.9-262.1z" style="fill: rgb(45, 159, 209);"/>
						<path class="st43" d="M438.8-337.3c-4.9,25.3-8.8,50.4-11.9,75.3c-4.7-12.2-9.1-24.6-13.5-37.3c4.5-25,9.8-50.1,16-75.4&#10;&#9;&#9;&#9;&#9;&#9;&#9;&#9;C432.3-362.1,435.5-349.7,438.8-337.3z" style="fill: rgb(69, 163, 205);"/>
						<path class="st44" d="M445.2-432.4c-5.7,19.3-11.1,38.5-15.8,57.6c2.9,12.6,6.1,25.1,9.4,37.4c4.2-21.5,9.1-43.3,14.6-65.2&#10;&#9;&#9;&#9;&#9;&#9;&#9;&#9;c-1.8-9.9-3.4-20-4.9-30.2C447.4-432.6,446.3-432.4,445.2-432.4z" style="fill: rgb(121, 182, 212);"/>
						<path class="st45" d="M1222.9,1014.3c38.1-1.2,76.1-2.6,114.2-3.8C1211.3,986.2,1086,938.3,968.8,868&#10;&#9;&#9;&#9;&#9;&#9;&#9;&#9;c-8.5,17.1-16.9,34.2-25.1,51.4c57.9,36.6,118,68,179.5,94C1156.5,1013.9,1189.6,1014.2,1222.9,1014.3z" style="fill: rgb(23, 138, 193);"/>
						<path class="st4" d="M662.7,607.2C751.4,712.8,856.3,800.5,968.8,868c-8.5,17.1-16.9,34.2-25.1,51.4&#10;&#9;&#9;&#9;&#9;&#9;&#9;&#9;c-123.4-78.2-236.5-179.5-329.4-300C630.6,615.5,646.7,611.4,662.7,607.2z" style="fill: rgb(34, 149, 204);"/>
						<path class="st5" d="M509.5,373.4c42,85.1,94,163.4,153.2,233.7c-16,4.2-32.1,8.3-48.4,12.2&#10;&#9;&#9;&#9;&#9;&#9;&#9;&#9;c-60.4-78.5-112.2-165.1-152.4-258.5C477.8,365.3,493.6,369.5,509.5,373.4z" style="fill: rgb(31, 135, 198);"/>
						<path class="st46" d="M435.7,180.8c18.7,67.4,43.7,131.8,73.8,192.7c-15.9-3.9-31.7-8.2-47.5-12.5&#10;&#9;&#9;&#9;&#9;&#9;&#9;&#9;c-28.2-65.7-50.7-134.7-66.4-206.6C408.8,163.5,422.2,172.3,435.7,180.8z" style="fill: rgb(10, 74, 164);"/>
						<path class="st47" d="M404.4,24.1c6.7,53.8,17.2,106.1,31.3,156.6c-13.5-8.5-26.8-17.3-40.1-26.5C384,101,376.2,46.1,372.6-10&#10;&#9;&#9;&#9;&#9;&#9;&#9;&#9;C383.1,1.7,393.6,13,404.4,24.1z" style="fill: rgb(6, 37, 130);"/>
						<path class="st48" d="M396.4-104.2c0.1,43.6,2.9,86.5,7.9,128.4C393.6,13,383.1,1.7,372.6-10c-2.8-43.3-3-87.5-0.5-132.3&#10;&#9;&#9;&#9;&#9;&#9;&#9;&#9;C380-129.3,388.1-116.6,396.4-104.2z" style="fill: rgb(51, 159, 213);"/>
						<path class="st49" d="M401.4-210.3c-3.4,35.8-5,71.3-4.9,106.1c-8.3-12.4-16.4-25.1-24.3-38.1c2-35.5,5.7-71.6,11.3-107.9&#10;&#9;&#9;&#9;&#9;&#9;&#9;&#9;C389.2-236.7,395.2-223.4,401.4-210.3z" style="fill: rgb(0, 57, 107);"/>
						<path class="st50" d="M413.4-299.3c-5.2,29.9-9.3,59.6-12.1,89c-6.2-13.1-12.2-26.4-17.9-39.9c4.5-29.7,10.3-59.6,17.3-89.7&#10;&#9;&#9;&#9;&#9;&#9;&#9;&#9;C404.8-326.2,409-312.6,413.4-299.3z" style="fill: rgb(0, 81, 136);"/>
						<path class="st51" d="M429.4-374.8c-6.2,25.3-11.5,50.4-16,75.4c-4.5-13.3-8.7-26.8-12.7-40.6c5.9-24.9,12.6-50,20.3-75.3&#10;&#9;&#9;&#9;&#9;&#9;&#9;&#9;C423.6-401.5,426.4-388.1,429.4-374.8z" style="fill: rgb(22, 101, 151);"/>
						<path class="st52" d="M426.1-431.3c-1.7,5.4-3.5,10.7-5.1,16.1c2.6,13.7,5.4,27.1,8.4,40.4c4.7-19.1,10.1-38.3,15.8-57.6&#10;&#9;&#9;&#9;&#9;&#9;&#9;&#9;C438.8-431.9,432.5-431.6,426.1-431.3z" style="fill: rgb(127, 187, 217);"/>
						<path class="st53" d="M1123.2,1013.4c-61.5-26-121.6-57.5-179.5-94c-9.5,20-18.7,40.1-27.7,60.3c16.7,11.2,33.8,21.8,51,32.1&#10;&#9;&#9;&#9;&#9;&#9;&#9;&#9;C1019,1012.3,1071.1,1013,1123.2,1013.4z" style="fill: rgb(1, 82, 137);"/>
						<path class="st6" d="M614.3,619.4c92.8,120.5,205.9,221.8,329.4,300c-9.5,20-18.7,40.1-27.7,60.3&#10;&#9;&#9;&#9;&#9;&#9;&#9;&#9;c-136.9-91.3-259.7-209.2-356.6-348C577.9,627.9,596.1,623.6,614.3,619.4z" style="fill: rgb(1, 101, 156);"/>
						<path class="st7" d="M461.9,360.9c40.2,93.4,92,180.1,152.4,258.5c-18.2,4.2-36.4,8.5-54.9,12.2&#10;&#9;&#9;&#9;&#9;&#9;&#9;&#9;C498,543.8,447,447.7,409.7,344.9C427.1,350.6,444.4,355.9,461.9,360.9z" style="fill: rgb(8, 120, 176);"/>
						<path class="st54" d="M395.5,154.3c15.6,71.8,38.2,140.8,66.4,206.6c-17.5-5-34.8-10.3-52.2-16&#10;&#9;&#9;&#9;&#9;&#9;&#9;&#9;c-25.9-70.9-45.1-145-56.9-221.5C366.9,134.1,381.2,144.3,395.5,154.3z" style="fill: rgb(0, 44, 88);"/>
						<path class="st55" d="M372.6-10c3.6,56.2,11.3,111,22.9,164.3c-14.4-10-28.6-20.3-42.8-31c-8.5-56.1-13.1-113.5-13.1-172.1&#10;&#9;&#9;&#9;&#9;&#9;&#9;&#9;C350.4-35.5,361.4-22.6,372.6-10z" style="fill: rgb(134, 192, 219);"/>
						<path class="st56" d="M372.2-142.3c-2.6,44.8-2.3,89,0.5,132.3c-11.2-12.5-22.2-25.5-33-38.8c0-44.7,2.6-90,8.1-135.9&#10;&#9;&#9;&#9;&#9;&#9;&#9;&#9;C355.6-170.3,363.8-156.1,372.2-142.3z" style="fill: rgb(51, 162, 209);"/>
						<path class="st8" d="M383.4-250.3c-5.6,36.4-9.3,72.3-11.3,107.9c-8.4-13.8-16.6-28-24.4-42.4c4.3-36.2,10.4-72.7,18.4-109.5&#10;&#9;&#9;&#9;&#9;&#9;&#9;&#9;C371.6-279.3,377.4-264.7,383.4-250.3z" style="fill: rgb(3, 114, 174);"/>
						<path class="st9" d="M400.7-339.9c-7,30.1-12.8,59.9-17.3,89.7c-6-14.4-11.8-29-17.3-44c6.4-29.7,14.1-59.6,23-89.7&#10;&#9;&#9;&#9;&#9;&#9;&#9;&#9;C392.7-369,396.6-354.4,400.7-339.9z" style="fill: rgb(237, 242, 249);"/>
						<path class="st57" d="M404-430.6c-5.3,15.6-10.3,31.1-14.9,46.6c3.6,15,7.5,29.6,11.6,44.1c5.9-24.9,12.6-50,20.3-75.3&#10;&#9;&#9;&#9;&#9;&#9;&#9;&#9;c-1-5.2-2-10.5-2.9-15.8C413.4-430.9,408.8-430.7,404-430.6z" style="fill: rgb(165, 192, 225);"/>
						<path class="st58" d="M924.6,1011.3c14.1,0.2,28.2,0.3,42.3,0.5c-17.2-10.3-34.2-20.9-51-32.1c-4.7,10.4-9.1,20.9-13.6,31.4&#10;&#9;&#9;&#9;&#9;&#9;&#9;&#9;C909.8,1011.1,917.2,1011.1,924.6,1011.3z" style="fill: rgb(31, 132, 184);"/>
						<path class="st10" d="M829.8,1010.5c24.2,0.2,48.4,0.3,72.6,0.6c4.5-10.6,8.9-21,13.6-31.4c-136.9-91.3-259.7-209.2-356.6-348&#10;&#9;&#9;&#9;&#9;&#9;&#9;&#9;c-20.8,4.5-41.7,8.6-62.7,12.5C585.2,785.4,699.4,909.4,829.8,1010.5z" style="fill: rgb(38, 151, 201);"/>
						<path class="st11" d="M409.7,344.9c37.3,102.8,88.4,199,149.8,286.8c-20.8,4.5-41.7,8.6-62.7,12.5&#10;&#9;&#9;&#9;&#9;&#9;&#9;&#9;C434.8,545.3,385.4,438.1,352,324.7C371.2,331.9,390.4,338.7,409.7,344.9z" style="fill: rgb(254, 254, 254);"/>
						<path class="st12" d="M352.7,123.3c11.8,76.6,31.1,150.7,56.9,221.5c-19.3-6.2-38.5-13-57.7-20.1&#10;&#9;&#9;&#9;&#9;&#9;&#9;&#9;c-22.6-76.7-37.9-156.2-44.8-237.8C322.2,99.4,337.4,111.6,352.7,123.3z" style="fill: rgb(238, 245, 249);"/>
						<path class="st59" d="M339.7-48.8c0,58.6,4.5,116,13.1,172.1c-15.3-11.7-30.5-23.9-45.5-36.4c-5-59-5.6-119-1.4-179.8&#10;&#9;&#9;&#9;&#9;&#9;&#9;&#9;C316.8-77.8,328.1-63.1,339.7-48.8z" style="fill: rgb(177, 204, 225);"/>
						<path class="st13" d="M347.8-184.7c-5.4,45.9-8.1,91.2-8.1,135.9c-11.6-14.3-22.8-29-33.9-44.1c3.2-46,9.1-92.4,17.8-139.2&#10;&#9;&#9;&#9;&#9;&#9;&#9;&#9;C331.4-216,339.4-200.2,347.8-184.7z" style="fill: rgb(82, 137, 185);"/>
						<path class="st14" d="M366.1-294.3c-7.9,36.8-14.1,73.3-18.4,109.5c-8.3-15.5-16.4-31.3-24.1-47.5&#10;&#9;&#9;&#9;&#9;&#9;&#9;&#9;c6.9-36.6,15.6-73.4,26.1-110.4C354.9-326.2,360.3-310.1,366.1-294.3z" style="fill: rgb(6, 123, 186);"/>
						<path class="st15" d="M378.1-430.3c-10.6,29.3-20.1,58.6-28.3,87.7c5.1,16.4,10.6,32.5,16.4,48.3c6.4-29.7,14.1-59.6,23-89.7&#10;&#9;&#9;&#9;&#9;&#9;&#9;&#9;c-3.7-15.2-7-30.6-10.1-46.3C378.7-430.3,378.4-430.3,378.1-430.3z" style="fill: rgb(0, 89, 159);"/>
						<path class="st60" d="M379.1-430.3c3,15.6,6.4,31.1,10.1,46.3c4.6-15.5,9.6-31.1,14.9-46.6&#10;&#9;&#9;&#9;&#9;&#9;&#9;&#9;C395.7-430.4,387.4-430.3,379.1-430.3z" style="fill: rgb(45, 111, 195);"/>
						<path class="st16" d="M698.3,1009.9c43.8,0.2,87.7,0.3,131.5,0.6C699.4,909.4,585.2,785.4,496.7,644.2&#10;&#9;&#9;&#9;&#9;&#9;&#9;&#9;c-24,4.4-48.1,8.5-72.3,12.1C496.6,786.9,589.8,906.2,698.3,1009.9z" style="fill: rgb(225, 234, 243);"/>
						<path class="st17" d="M352,324.7c33.4,113.4,82.8,220.6,144.7,319.5c-24,4.4-48.1,8.5-72.3,12.1&#10;&#9;&#9;&#9;&#9;&#9;&#9;&#9;C362.5,544.6,315.9,424.5,288.2,299C309.4,308.2,330.7,316.7,352,324.7z" style="fill: rgb(192, 210, 231);"/>
						<path class="st18" d="M307.2,86.9c6.9,81.6,22.1,161.2,44.8,237.8c-21.3-8-42.6-16.6-63.8-25.7&#10;&#9;&#9;&#9;&#9;&#9;&#9;&#9;c-18.4-82.9-28.5-168.3-29.4-255.1C274.7,58.8,290.8,73.1,307.2,86.9z" style="fill: rgb(161, 186, 219);"/>
						<path class="st19" d="M305.8-93c-4.2,60.9-3.6,120.9,1.4,179.8c-16.4-13.8-32.6-28.1-48.5-43c-0.6-61.8,3.4-124.3,12.5-187.2&#10;&#9;&#9;&#9;&#9;&#9;&#9;&#9;C282.4-126.1,293.9-109.3,305.8-93z" style="fill: rgb(145, 174, 211);"/>
						<path class="st20" d="M323.6-232.2c-8.8,46.9-14.7,93.3-17.8,139.2c-11.9-16.3-23.4-33.1-34.5-50.4&#10;&#9;&#9;&#9;&#9;&#9;&#9;&#9;c6.7-47.1,16.3-94.4,28.8-141.9C307.5-267.2,315.4-249.4,323.6-232.2z" style="fill: rgb(142, 182, 214);"/>
						<path class="st21" d="M349.7-342.6c-10.5,37-19.2,73.8-26.1,110.4c-8.2-17.2-16.1-35-23.6-53.1c9.8-36.8,21.2-73.7,34.5-110.7&#10;&#9;&#9;&#9;&#9;&#9;&#9;&#9;C339.2-377.8,344.3-359.9,349.7-342.6z" style="fill: rgb(110, 172, 204);"/>
						<path class="st61" d="M347.5-430.2c-4.5,11.4-8.8,22.8-12.9,34.2c4.6,18.1,9.7,36,15.1,53.4c8.2-29.1,17.7-58.4,28.3-87.7&#10;&#9;&#9;&#9;&#9;&#9;&#9;&#9;C367.9-430.2,357.7-430.2,347.5-430.2z" style="fill: rgb(114, 181, 214);"/>
						<path class="st22" d="M698.3,1009.9c-108.5-103.7-201.7-223-274-353.6c-27.9,4.2-56,8-84.2,11.2&#10;&#9;&#9;&#9;&#9;&#9;&#9;&#9;c58.4,122.5,134.3,237.7,224.2,342.1C608.9,1009.8,653.6,1009.8,698.3,1009.9z" style="fill: rgb(172, 200, 238);"/>
						<path class="st23" d="M288.2,299c27.7,125.5,74.3,245.6,136.1,357.3c-27.9,4.2-56,8-84.2,11.2&#10;&#9;&#9;&#9;&#9;&#9;&#9;&#9;c-60.8-127.1-102.9-262.2-122.7-401.3C240.9,277.8,264.5,288.8,288.2,299z" style="fill: rgb(120, 158, 219);"/>
						<path class="st24" d="M258.8,43.9c0.9,86.9,11,172.2,29.4,255.1c-23.7-10.2-47.3-21.2-70.8-32.8C204.6,176.5,201,85,207.5-7.2&#10;&#9;&#9;&#9;&#9;&#9;&#9;&#9;C224.2,10.5,241.4,27.5,258.8,43.9z" style="fill: rgb(206, 225, 241);"/>
						<path class="st25" d="M271.3-143.4c-9.1,63-13.1,125.5-12.5,187.2c-17.4-16.4-34.5-33.4-51.3-51.1&#10;&#9;&#9;&#9;&#9;&#9;&#9;&#9;c4.6-64.4,14.1-129.2,28.8-194C247.5-181.4,259.2-162.1,271.3-143.4z" style="fill: rgb(213, 232, 242);"/>
						<path class="st26" d="M300.1-285.3c-12.5,47.5-22.1,94.8-28.8,141.9c-12.1-18.7-23.7-38-34.9-57.9&#10;&#9;&#9;&#9;&#9;&#9;&#9;&#9;c10.9-47.9,24.6-95.9,41.3-143.7C284.6-324.6,292.1-304.7,300.1-285.3z" style="fill: rgb(197, 224, 237);"/>
						<path class="st27" d="M310.6-430.3c-12,28.3-23.1,56.8-33,85.3c7,20.4,14.5,40.3,22.5,59.7c9.8-36.8,21.2-73.7,34.5-110.7&#10;&#9;&#9;&#9;&#9;&#9;&#9;&#9;c-2.9-11.3-5.5-22.8-8.1-34.3C321.2-430.3,315.9-430.3,310.6-430.3z" style="fill: rgb(190, 219, 235);"/>
						<path class="st62" d="M330.9-430.2c-1.4,0-2.9-0.1-4.4-0.1c2.6,11.6,5.2,23.1,8.1,34.3c4.1-11.4,8.5-22.8,12.9-34.2&#10;&#9;&#9;&#9;&#9;&#9;&#9;&#9;C342-430.2,336.5-430.2,330.9-430.2z" style="fill: rgb(193, 221, 233);"/>
						<path class="st28" d="M507.4,1009.6c19,0,37.9,0,56.9,0c-89.9-104.5-165.8-219.7-224.2-342.1c-32.9,3.9-66,7-99.3,9.4&#10;&#9;&#9;&#9;&#9;&#9;&#9;&#9;c46.3,116.1,107.4,228,181.2,332.8H507.4z" style="fill: rgb(255, 255, 255);"/>
						<path class="st29" d="M217.4,266.2c19.8,139.1,61.9,274.1,122.7,401.3c-32.9,3.9-66,7-99.3,9.4&#10;&#9;&#9;&#9;&#9;&#9;&#9;&#9;c-58.1-145.6-93.2-298.1-102.1-452.8C164.7,239.1,191,253,217.4,266.2z" style="fill: rgb(247, 251, 254);"/>
						<path class="st30" d="M207.5-7.2c-6.5,92.2-2.9,183.7,9.9,273.4c-26.5-13.2-52.7-27.1-78.8-42.1c-5.5-96.9-0.8-194.7,15-292.2&#10;&#9;&#9;&#9;&#9;&#9;&#9;&#9;C171.1-47,189.1-26.7,207.5-7.2z" style="fill: rgb(241, 248, 252);"/>
						<path class="st31" d="M236.3-201.3c-14.7,64.9-24.2,129.6-28.8,194c-18.4-19.5-36.4-39.8-53.9-60.9&#10;&#9;&#9;&#9;&#9;&#9;&#9;&#9;c10.8-66.8,26.8-133.6,48.1-199.9C212.7-245.2,224.2-222.9,236.3-201.3z" style="fill: rgb(236, 246, 251);"/>
						<path class="st32" d="M277.6-345c-16.7,47.9-30.4,95.8-41.3,143.7c-12.2-21.6-23.7-43.9-34.6-66.8&#10;&#9;&#9;&#9;&#9;&#9;&#9;&#9;c15.6-48.3,33.9-96.4,55.2-144.1C263.2-389.3,270.1-366.8,277.6-345z" style="fill: rgb(241, 248, 251);"/>
						<path class="st33" d="M265.6-431c-2.9,6.3-5.9,12.5-8.7,18.8c6.3,22.9,13.2,45.4,20.7,67.2c9.9-28.4,20.9-56.9,33-85.3&#10;&#9;&#9;&#9;&#9;&#9;&#9;&#9;C295.6-430.3,280.6-430.5,265.6-431z" style="fill: rgb(250, 252, 253);"/>
						<path class="st34" d="M301.4,1009.6H422C348.2,904.9,287.1,793,240.8,676.9c-39.2,2.9-78.7,4.8-118.4,5.9&#10;&#9;&#9;&#9;&#9;&#9;&#9;&#9;c35.3,111.9,83.7,221.6,143.5,327C277.8,1009.8,289.6,1009.6,301.4,1009.6z" style="fill: rgb(253, 254, 255);"/>
						<path class="st35" d="M138.7,224.1c8.8,154.6,44,307.2,102.1,452.8c-39.2,2.9-78.7,4.8-118.4,5.9&#10;&#9;&#9;&#9;&#9;&#9;&#9;&#9;c-53.1-168-77.7-341.1-71.2-513.2C80,188.9,109.2,207.1,138.7,224.1z" style="fill: rgb(252, 253, 252);"/>
						<path class="st36" d="M153.6-68.2c-15.7,97.6-20.5,195.3-15,292.2c-29.5-17-58.7-35.2-87.5-54.5&#10;&#9;&#9;&#9;&#9;&#9;&#9;&#9;C55.1,65.2,70.4-38.8,97.6-141.3C115.6-115.9,134.3-91.6,153.6-68.2z" style="fill: rgb(252, 254, 254);"/>
						<path class="st28" d="M201.7-268.1c-21.3,66.3-37.3,133.1-48.1,199.9c-19.4-23.4-38.1-47.9-56-73.2&#10;&#9;&#9;&#9;&#9;&#9;&#9;&#9;c18.2-68.9,41.7-137,70.7-204.1C178.7-318.9,189.8-293.1,201.7-268.1z" style="fill: rgb(255, 255, 255);"/>
						<path class="st28" d="M210.5-434.9c-15.1,29.6-29.3,59.4-42.2,89.4c10.4,26.5,21.5,52.3,33.4,77.3&#10;&#9;&#9;&#9;&#9;&#9;&#9;&#9;c15.6-48.3,33.9-96.4,55.2-144.1c-1.7-6.4-3.3-12.9-4.9-19.4C238.1-432.2,224.3-433.3,210.5-434.9z" style="fill: rgb(255, 255, 255);"/>
						<path class="st28" d="M252-431.5c1.6,6.4,3.2,12.9,4.9,19.4c2.8-6.3,5.7-12.5,8.7-18.8C261-431.2,256.5-431.3,252-431.5z" style="fill: rgb(255, 255, 255);"/>
						<path class="st28" d="M51.2,169.6c-27.1-18.1-53.7-37.3-80-57.5c-2.6,21.4-5.1,43-8.3,64.5c2.2,17.8,4.1,35.5,5.5,53.3&#10;&#9;&#9;&#9;&#9;&#9;&#9;&#9;c4.9,59.6,0.6,117.9-6,177.2c-0.5,3.8-0.9,7.6-1.4,11.3C-17.4,481.1-4.4,546.5-11.9,614c-2.3,21.5-4.1,44.9-7.2,68.2&#10;&#9;&#9;&#9;&#9;&#9;&#9;&#9;c47.5,1.5,94.6,1.7,141.5,0.6C69.3,514.8,44.7,341.7,51.2,169.6z" style="fill: rgb(255, 255, 255);"/>
						<path class="st28" d="M40.2-230C13.4-160.8-8-90.1-24.2-18.5c1.7,38.2,2,76.3-2.6,114.4c-0.6,5.4-1.3,10.7-1.9,16.1&#10;&#9;&#9;&#9;&#9;&#9;&#9;&#9;c26.2,20.2,52.9,39.4,80,57.5C55.1,65.2,70.4-38.8,97.6-141.3C77.5-169.7,58.4-199.2,40.2-230z" style="fill: rgb(255, 255, 255);"/>
						<path class="st28" d="M168.3-345.4c-29,67.1-52.5,135.2-70.7,204.1c-20.1-28.3-39.2-57.9-57.5-88.7&#10;&#9;&#9;&#9;&#9;&#9;&#9;&#9;c27.1-70,59.5-138.6,97.1-205.5C146.6-404.6,157-374.5,168.3-345.4z" style="fill: rgb(255, 255, 255);"/>
						<path class="st28" d="M204.5-435.5c-20.8-2.6-41.4-5.8-61.9-9.3c-1.7,3.1-3.6,6.1-5.3,9.2c9.3,30.9,19.7,61,31,90.1&#10;&#9;&#9;&#9;&#9;&#9;&#9;&#9;c12.9-30,27.1-59.9,42.2-89.4C208.5-435.1,206.5-435.2,204.5-435.5z" style="fill: rgb(255, 255, 255);"/>
						<path class="st28" d="M-31-175.5c-0.8,52.3,4.4,104.7,6.7,157C-8-90.1,13.4-160.8,40.2-230c-20.3-34.5-39.4-70.6-57-108.2&#10;&#9;&#9;&#9;&#9;&#9;&#9;&#9;c-4.4,8.2-8.7,16.5-12.9,24.7c-0.5,5.2-1,10.4-1.7,15.6c-2.1,18.1-4.6,36.3-7.1,54.4C-33.4-221.6-30.7-198.9-31-175.5z" style="fill: rgb(255, 255, 255);"/>
						<path class="st28" d="M101.7-451.8c-19.7,6-39.6,10.1-59.6,12.2c-20.9,33.3-40.6,67.1-59,101.4c17.6,37.6,36.7,73.6,57,108.2&#10;&#9;&#9;&#9;&#9;&#9;&#9;&#9;c27.1-70,59.5-138.6,97.1-205.5c-1.1-3.5-2-7.1-3-10.6C123.5-448,112.6-449.9,101.7-451.8z" style="fill: rgb(255, 255, 255);"/>
					</g>
				</g>
			</g>
			<g>
				<defs>
					<path d="M -4.1 -418.299988 H 1405.099951 V 990.899963 H -4.1 V -418.299988 Z" id="SVGID_5_"/>
				</defs>
				<clipPath id="SVGID_6_">
					<use style="overflow:visible;" xlink:href="#SVGID_5_"/>
				</clipPath>
				<g class="st63" style="clip-path: url('#SVGID_6_');">
					<g>
						<path class="st2" d="M1427.4,941.7c-9.1,4.9-18.3,9.7-27.4,14.5c9.9,7,19.9,13.7,30,20.4C1428.9,965,1428,953.4,1427.4,941.7z&#10;&#9;&#9;&#9;&#9;&#9;&#9;&#9;" style="fill: rgb(20, 82, 163);"/>
						<path class="st3" d="M1430,976.6c-10-6.7-20.1-13.4-30-20.4c-47.5,24.3-95.7,46.6-144.6,66.8c35.4-1.2,70.8-2.4,106.3-3.5&#10;&#9;&#9;&#9;&#9;&#9;&#9;&#9;c23.2-10.5,46.3-21.6,69.2-33.2C1430.6,983,1430.3,979.8,1430,976.6z" style="fill: rgb(22, 85, 165);"/>
						<path class="st4" d="M1425.9,888.8c-22.5,12.9-45.3,25.6-68.3,37.4c14,10.2,28.2,20.2,42.4,30c9.1-4.7,18.3-9.6,27.4-14.5&#10;&#9;&#9;&#9;&#9;&#9;&#9;&#9;C1426.3,924.2,1425.8,906.6,1425.9,888.8z" style="fill: rgb(34, 149, 204);"/>
						<path class="st5" d="M1229.5,1023.7c8.6-0.3,17.2-0.6,25.9-0.8c48.9-20.2,97.1-42.5,144.6-66.8c-14.2-9.7-28.4-19.8-42.4-30&#10;&#9;&#9;&#9;&#9;&#9;&#9;&#9;c-71.8,37.3-145.6,69.5-221,96.8C1167.6,1023.3,1198.6,1023.6,1229.5,1023.7z" style="fill: rgb(31, 135, 198);"/>
						<path class="st6" d="M1426.5,858.6c0.5-11.4,1.1-23,1.7-34.4c-38.4,23.9-77.5,46.4-117.3,67.4c15.4,11.7,30.9,23.1,46.6,34.5&#10;&#9;&#9;&#9;&#9;&#9;&#9;&#9;c23-11.9,45.7-24.5,68.3-37.4C1425.9,878.9,1426.1,868.8,1426.5,858.6z" style="fill: rgb(1, 101, 156);"/>
						<path class="st7" d="M1136.6,1023c75.3-27.2,149.1-59.5,221-96.8c-15.8-11.4-31.3-22.8-46.6-34.5&#10;&#9;&#9;&#9;&#9;&#9;&#9;&#9;c-102,53.6-208.5,97.2-317.8,129.7C1041,1021.9,1088.8,1022.5,1136.6,1023z" style="fill: rgb(8, 120, 176);"/>
						<path class="st9" d="M-29.7,1010.8c18-3,36.4-4.7,55.5-4.7c-0.2-0.2-0.5-0.3-0.6-0.6c-22.4-7.5-44.7-15.8-67-24.5&#10;&#9;&#9;&#9;&#9;&#9;&#9;&#9;c-0.6,8.2-1.1,16.3-1.4,24.2c0,0.2,0,0.3,0.1,0.5C-38.6,1007.5-34.2,1009.1-29.7,1010.8z" style="fill: rgb(237, 242, 249);"/>
						<path class="st10" d="M1430.6,746.5c-55.2,38.2-112.3,73.2-171.1,104.7c16.9,13.7,34.1,27.2,51.5,40.5&#10;&#9;&#9;&#9;&#9;&#9;&#9;&#9;c39.8-21,78.9-43.5,117.3-67.4C1429.6,798.2,1430.8,772.3,1430.6,746.5z" style="fill: rgb(38, 151, 201);"/>
						<path class="st11" d="M930.7,1020.7c20.8,0.2,41.6,0.5,62.4,0.6c109.3-32.4,215.8-76.1,317.8-129.7&#10;&#9;&#9;&#9;&#9;&#9;&#9;&#9;c-17.4-13.2-34.6-26.8-51.5-40.5c-135.4,72.7-279.3,127.4-428.6,160.7c3.8,2.7,7.8,5.3,11.6,8.1&#10;&#9;&#9;&#9;&#9;&#9;&#9;&#9;C871.9,1020.1,901.3,1020.4,930.7,1020.7z" style="fill: rgb(254, 254, 254);"/>
						<path class="st12" d="M842.5,1019.9c-3.9-2.7-7.8-5.3-11.6-8.1c-12.6,2.7-25.2,5.3-37.8,7.8&#10;&#9;&#9;&#9;&#9;&#9;&#9;&#9;C809.5,1019.8,825.9,1019.8,842.5,1019.9z" style="fill: rgb(238, 245, 249);"/>
						<path class="st13" d="M193.1,1019c-25.1-5-50.3-10.5-75.5-16.9c5,4.7,10,9.4,15.1,14.2C152.8,1017.8,172.9,1018.7,193.1,1019z&#10;&#9;&#9;&#9;&#9;&#9;&#9;&#9;" style="fill: rgb(82, 137, 185);"/>
						<path class="st14" d="M25.2,1005.5c0.5,0.3,1.1,0.5,1.8,0.6c3.8,0,7.6,0,11.5,0.2c31,1.1,61.8,5.3,92.5,9.9&#10;&#9;&#9;&#9;&#9;&#9;&#9;&#9;c0.6,0,1.1,0,1.8,0.2c-5.1-4.7-10.1-9.4-15.1-14.2c-45.6-11.6-91.3-25.3-137-41.4C-4.7,976,10.1,990.9,25.2,1005.5z" style="fill: rgb(6, 123, 186);"/>
						<path class="st15" d="M-39.5,953.4c-0.8,9.1-1.7,18.4-2.3,27.5c22.3,8.7,44.7,17,67,24.5c-15.1-14.6-30-29.5-44.6-44.7&#10;&#9;&#9;&#9;&#9;&#9;&#9;&#9;C-26,958.5-32.7,955.9-39.5,953.4z" style="fill: rgb(0, 89, 159);"/>
						<path class="st16" d="M1429.8,718.8c-1.2-20.8-2.9-41.7-3.9-62.7c-70.8,54.9-145.4,104.4-223.6,147.6&#10;&#9;&#9;&#9;&#9;&#9;&#9;&#9;c18.7,16.1,37.7,32,57.1,47.5c58.8-31.5,115.9-66.5,171.1-104.7C1430.5,737.2,1430.3,728,1429.8,718.8z" style="fill: rgb(225, 234, 243);"/>
						<path class="st17" d="M830.8,1011.9c149.3-33.3,293.3-88,428.6-160.7c-19.3-15.5-38.4-31.3-57.1-47.5&#10;&#9;&#9;&#9;&#9;&#9;&#9;&#9;c-134.7,74.6-279.2,130.6-430.2,164.1C791.3,982.8,810.8,997.4,830.8,1011.9z" style="fill: rgb(192, 210, 231);"/>
						<path class="st18" d="M510.8,1019c94,0,188.2,0.2,282.2,0.6c12.6-2.4,25.3-5,37.8-7.8c-20-14.5-39.6-29.1-58.7-44.1&#10;&#9;&#9;&#9;&#9;&#9;&#9;&#9;c-99.9,22.1-202.7,34.2-307.3,35.3c6.4,5.5,12.8,10.7,19.3,16H510.8z" style="fill: rgb(161, 186, 219);"/>
						<path class="st19" d="M303.4,1019h180.6c-6.5-5.3-12.9-10.5-19.3-16c-74.3,0.8-149.6-4.1-225.4-14.9&#10;&#9;&#9;&#9;&#9;&#9;&#9;&#9;c11.1,10.5,22.5,20.8,34.1,31C283.5,1019.2,293.5,1019,303.4,1019z" style="fill: rgb(145, 174, 211);"/>
						<path class="st20" d="M117.6,1002.1c25.2,6.4,50.4,11.9,75.5,16.9c26.8,0.6,53.7,0.3,80.4,0.2c-11.6-10.2-23-20.5-34.1-31&#10;&#9;&#9;&#9;&#9;&#9;&#9;&#9;c-56.8-8.2-113.8-19.6-170.9-34.7C84.5,969.9,100.9,986.2,117.6,1002.1z" style="fill: rgb(142, 182, 214);"/>
						<path class="st21" d="M68.5,953.4c-35-9.3-70.1-19.9-105.2-32c-0.5,6.4-1.1,12.8-1.6,19.2c6.2,6.8,12.6,13.5,18.9,20.1&#10;&#9;&#9;&#9;&#9;&#9;&#9;&#9;c45.7,16.1,91.4,29.8,137,41.4C100.9,986.2,84.5,969.9,68.5,953.4z" style="fill: rgb(110, 172, 204);"/>
						<path class="st61" d="M-39.5,953.4c6.8,2.4,13.5,5,20.2,7.3c-6.4-6.5-12.7-13.2-18.9-20.1C-38.7,944.9-39.1,949.2-39.5,953.4z&#10;&#9;&#9;&#9;&#9;&#9;&#9;&#9;" style="fill: rgb(114, 181, 214);"/>
						<path class="st22" d="M1425.1,628.1c-0.2-33,3.3-65.3,7.8-97.7c-89.6,82.5-188,155.5-293.9,216.7c20.8,19.2,41.9,38,63.5,56.6&#10;&#9;&#9;&#9;&#9;&#9;&#9;&#9;c78.1-43.2,152.8-92.7,223.6-147.6C1425.5,646.8,1425.2,637.3,1425.1,628.1z" style="fill: rgb(172, 200, 238);"/>
						<path class="st23" d="M772.2,967.7c151-33.5,295.5-89.5,430.2-164.1c-21.5-18.6-42.7-37.4-63.5-56.6&#10;&#9;&#9;&#9;&#9;&#9;&#9;&#9;C1006.2,823.8,862,881.8,709.7,915.8C729.9,933.5,750.8,950.8,772.2,967.7z" style="fill: rgb(120, 158, 219);"/>
						<path class="st24" d="M464.8,1003c104.6-1.1,207.4-13.2,307.3-35.3c-21.4-16.9-42.2-34.2-62.5-51.9&#10;&#9;&#9;&#9;&#9;&#9;&#9;&#9;c-98.2,21.9-199.8,33.9-303.8,34.5C424.9,968.3,444.7,985.8,464.8,1003z" style="fill: rgb(206, 225, 241);"/>
						<path class="st25" d="M239.4,988.1c75.8,10.8,151.1,15.7,225.4,14.9c-20.2-17.2-39.9-34.7-58.9-52.7&#10;&#9;&#9;&#9;&#9;&#9;&#9;&#9;c-72.6,0.5-146.4-4.7-221-16C202.5,952.7,220.7,970.5,239.4,988.1z" style="fill: rgb(213, 232, 242);"/>
						<path class="st26" d="M68.5,953.4c57.1,15.1,114.1,26.5,170.9,34.7c-18.7-17.7-36.9-35.5-54.6-53.7&#10;&#9;&#9;&#9;&#9;&#9;&#9;&#9;c-55.1-8.4-110.6-19.9-166.5-35.2C34.7,917.7,51.3,935.6,68.5,953.4z" style="fill: rgb(197, 224, 237);"/>
						<path class="st27" d="M-35.2,899.4c-0.4,7.3-0.9,14.6-1.5,22.1c35.2,12,70.2,22.7,105.2,32c-17.2-17.8-33.9-35.8-50.1-54.2&#10;&#9;&#9;&#9;&#9;&#9;&#9;&#9;c-17.7-4.7-35.3-10-53-15.5C-34.7,888.9-35,894.1-35.2,899.4z" style="fill: rgb(190, 219, 235);"/>
						<path class="st28" d="M1433.6,525c-5.6-41.7-9.3-82.9-7.5-125.4c0.5-9,0.9-18,1.5-26.9c-102.4,117.8-223.3,222.2-359.5,306&#10;&#9;&#9;&#9;&#9;&#9;&#9;&#9;c23,23.1,46.6,46,70.7,68.3c105.9-61.2,204.4-134.2,293.9-216.7C1433.1,528.7,1433.3,526.9,1433.6,525z" style="fill: rgb(255, 255, 255);"/>
						<path class="st29" d="M709.7,915.8c152.3-34.1,296.5-92.1,429.2-168.8c-24.1-22.4-47.7-45.2-70.7-68.3&#10;&#9;&#9;&#9;&#9;&#9;&#9;&#9;C939.2,758,796.5,818.9,643.5,854.5C664.8,875.4,686.9,895.9,709.7,915.8z" style="fill: rgb(247, 251, 254);"/>
						<path class="st30" d="M405.9,950.4c103.9-0.6,205.5-12.6,303.8-34.5c-22.8-19.9-44.9-40.5-66.2-61.3&#10;&#9;&#9;&#9;&#9;&#9;&#9;&#9;c-95.8,22.2-195.6,34.5-298.6,35.2C364.5,910.4,384.8,930.6,405.9,950.4z" style="fill: rgb(241, 248, 252);"/>
						<path class="st31" d="M184.9,934.4c74.6,11.3,148.5,16.4,221,16c-21.1-19.8-41.4-40-61-60.7c-70.6,0.3-142.7-4.7-215.8-16&#10;&#9;&#9;&#9;&#9;&#9;&#9;&#9;C147.1,894.4,165.7,914.5,184.9,934.4z" style="fill: rgb(236, 246, 251);"/>
						<path class="st32" d="M18.4,899.3c55.9,15.2,111.4,26.8,166.5,35.2c-19.2-19.9-37.8-40-55.8-60.7&#10;&#9;&#9;&#9;&#9;&#9;&#9;&#9;c-53.3-8.1-107.3-19.5-161.6-34.4C-16.1,859.5,0.9,879.6,18.4,899.3z" style="fill: rgb(241, 248, 251);"/>
						<path class="st33" d="M18.4,899.3c-17.5-19.6-34.5-39.7-50.9-60c-0.8-0.3-1.8-0.5-2.6-0.8c0.7,14.9,0.8,30,0.5,45.2&#10;&#9;&#9;&#9;&#9;&#9;&#9;&#9;C-16.9,889.2,0.7,894.5,18.4,899.3z" style="fill: rgb(250, 252, 253);"/>
						<path class="st34" d="M1432.5,297.2c3.2-61.8,2.2-123.9-0.1-185.7c-103.3,185-253.3,355.1-443.2,483.4&#10;&#9;&#9;&#9;&#9;&#9;&#9;&#9;c25.5,28.5,51.8,56.5,79,83.9c136.2-83.9,257-188.2,359.5-306C1429.2,347.6,1431.3,322.4,1432.5,297.2z" style="fill: rgb(253, 254, 255);"/>
						<path class="st35" d="M643.5,854.5c153-35.6,295.7-96.5,424.7-175.8c-27.2-27.4-53.5-55.4-79-83.9&#10;&#9;&#9;&#9;&#9;&#9;&#9;&#9;c-123,82.9-262.5,148.1-415.3,186.4C596.1,806.3,619.4,830.6,643.5,854.5z" style="fill: rgb(252, 253, 252);"/>
						<path class="st36" d="M344.9,889.7c103-0.6,202.8-12.9,298.6-35.2c-24.1-23.9-47.4-48.2-69.5-73.2&#10;&#9;&#9;&#9;&#9;&#9;&#9;&#9;c-92.7,23.3-190.2,36.7-291.8,38C302.1,843.3,323.1,866.7,344.9,889.7z" style="fill: rgb(252, 254, 254);"/>
						<path class="st28" d="M129.1,873.7c73.1,11.3,145.2,16.3,215.8,16c-21.8-23-42.8-46.4-62.8-70.3&#10;&#9;&#9;&#9;&#9;&#9;&#9;&#9;c-68.3,0.9-138.3-3.7-209.8-14.3C90.5,828.3,109.4,851.3,129.1,873.7z" style="fill: rgb(255, 255, 255);"/>
						<path class="st28" d="M72.3,805.1c-36.8-5.5-74-12.6-111.6-21.6c1.8,17.5,3.3,35,4.1,52.5c0.9,1.1,1.8,2.3,2.7,3.3&#10;&#9;&#9;&#9;&#9;&#9;&#9;&#9;c54.3,14.9,108.3,26.3,161.6,34.4C109.4,851.3,90.5,828.3,72.3,805.1z" style="fill: rgb(255, 255, 255);"/>
						<path class="st28" d="M573.9,781.3C726.7,743,866.2,677.8,989.2,594.9c-30.5-34.1-59.9-69.1-88.1-104.7&#10;&#9;&#9;&#9;&#9;&#9;&#9;&#9;c-113.6,88.3-247.7,159.9-399.6,203.5C524.3,723.5,548.4,752.9,573.9,781.3z" style="fill: rgb(255, 255, 255);"/>
						<path class="st28" d="M282.1,819.4c101.6-1.4,199.1-14.8,291.8-38c-25.5-28.5-49.6-57.8-72.4-87.7&#10;&#9;&#9;&#9;&#9;&#9;&#9;&#9;c-88.6,25.3-183.3,40.9-283.2,44.1C238.4,765.5,259.8,792.7,282.1,819.4z" style="fill: rgb(255, 255, 255);"/>
						<path class="st28" d="M72.3,805.1c71.5,10.7,141.5,15.2,209.8,14.3c-22.4-26.6-43.7-53.9-63.8-81.6&#10;&#9;&#9;&#9;&#9;&#9;&#9;&#9;c-65.5,2.1-133.3-1.1-203.1-10.5C33.4,753.8,52.4,779.6,72.3,805.1z" style="fill: rgb(255, 255, 255);"/>
						<path class="st28" d="M-33.6,756.1c-2.2,6.2-4.5,12.3-6.7,18.4c0.3,3,0.6,6.1,1,9c37.6,9,74.8,16.1,111.6,21.6&#10;&#9;&#9;&#9;&#9;&#9;&#9;&#9;c-19.9-25.4-39-51.3-57.1-77.8c-13.2-1.7-26.3-3.7-39.6-5.9C-26.8,733.2-29.8,744.9-33.6,756.1z" style="fill: rgb(255, 255, 255);"/>
						<path class="st28" d="M501.6,693.7c151.9-43.5,286-115.2,399.6-203.5c-34.2-43.4-66.8-87.8-97.5-133.3&#10;&#9;&#9;&#9;&#9;&#9;&#9;&#9;C703.8,453.2,578,535.4,428,587.6C450.7,623.7,475.2,659.1,501.6,693.7z" style="fill: rgb(255, 255, 255);"/>
						<path class="st28" d="M218.4,737.8c99.9-3.2,194.6-18.9,283.2-44.1c-26.3-34.5-50.9-70-73.6-106.1&#10;&#9;&#9;&#9;&#9;&#9;&#9;&#9;c-83.8,29.1-175.1,48.5-273.2,55.2C174.6,675.1,195.8,706.7,218.4,737.8z" style="fill: rgb(255, 255, 255);"/>
						<path class="st28" d="M154.8,642.8c-54.3,3.8-110.6,3.5-168.9-1.1c-1.1,11.6-2.3,23.4-3.7,35.5c10.7,16.9,21.7,33.6,33,50.1&#10;&#9;&#9;&#9;&#9;&#9;&#9;&#9;c69.8,9.4,137.6,12.6,203.1,10.5C195.8,706.7,174.6,675.1,154.8,642.8z" style="fill: rgb(255, 255, 255);"/>
						<path class="st28" d="M-17.8,677.2c-1.7,14.8-3.7,29.7-6.6,44.1c13.3,2.3,26.5,4.3,39.6,5.9C3.9,710.9-7,694.1-17.8,677.2z" style="fill: rgb(255, 255, 255);"/>
					</g>
					<g>
						<path class="st37" d="M1413.5-359.9c0.8-24.2,4.3-47.9,10.3-70.5c-2.9,0.1-5.8,0.2-8.8,0.2c-11,0-21.8-0.7-32.7-1.9&#10;&#9;&#9;&#9;&#9;&#9;&#9;&#9;c-13.7,141.1-59.3,285.6-136,420.9c14.7,7.8,29.5,15.4,44.4,22.9c54.1-90.2,94.9-185,122.1-281.2&#10;&#9;&#9;&#9;&#9;&#9;&#9;&#9;C1412.4-299.6,1412.5-329.7,1413.5-359.9z" style="fill: rgb(23, 115, 182);"/>
						<path class="st2" d="M1016.5,276.6c93.7-85.5,170.8-183.8,229.9-287.8c14.7,7.8,29.5,15.4,44.4,22.9&#10;&#9;&#9;&#9;&#9;&#9;&#9;&#9;c-67.9,113.2-156.2,218.8-262.5,308.1C1024.5,305.2,1020.5,290.9,1016.5,276.6z" style="fill: rgb(20, 82, 163);"/>
						<path class="st3" d="M802.7,430.4c78.4-43.5,149.9-95.7,213.7-153.8c4,14.3,8,28.8,11.7,43.2&#10;&#9;&#9;&#9;&#9;&#9;&#9;&#9;c-70.8,59.6-149.6,112-235.3,154.3C796.4,459.4,799.7,445,802.7,430.4z" style="fill: rgb(22, 85, 165);"/>
						<path class="st38" d="M621.9,510.4c63.7-21.5,124.1-48.4,180.9-80c-3,14.6-6.3,29.1-9.9,43.7c-61.3,30.3-126,55.4-193.9,74.3&#10;&#9;&#9;&#9;&#9;&#9;&#9;&#9;C606.9,535.7,614.6,523.1,621.9,510.4z" style="fill: rgb(14, 120, 174);"/>
						<path class="st39" d="M471.7,548.9c51.8-9.3,102-22.2,150.2-38.5c-7.3,12.6-15,25.3-22.9,37.9&#10;&#9;&#9;&#9;&#9;&#9;&#9;&#9;c-50.9,14.2-103.5,24.8-157.7,31.5C451.7,569.6,461.8,559.3,471.7,548.9z" style="fill: rgb(34, 139, 189);"/>
						<path class="st40" d="M346.6,563.5c42.6-2.4,84.3-7.3,125-14.6c-9.9,10.3-20,20.7-30.4,30.9c-42.2,5.2-85.2,7.9-129.2,7.9&#10;&#9;&#9;&#9;&#9;&#9;&#9;&#9;C323.9,580,335.5,571.9,346.6,563.5z" style="fill: rgb(61, 168, 213);"/>
						<path class="st41" d="M241.9,564.5c35.5,1.4,70.4,1.1,104.7-0.9c-11.2,8.4-22.8,16.4-34.5,24.2c-35.1,0.2-70.7-1.5-106.8-4.9&#10;&#9;&#9;&#9;&#9;&#9;&#9;&#9;C217.7,576.9,229.9,570.7,241.9,564.5z" style="fill: rgb(64, 174, 220);"/>
						<path class="st42" d="M153.2,557.1c30,3.7,59.5,6.1,88.7,7.3c-12,6.2-24.2,12.5-36.7,18.4c-29.6-2.9-59.4-6.8-89.6-12.2&#10;&#9;&#9;&#9;&#9;&#9;&#9;&#9;C128.4,566.3,140.9,561.9,153.2,557.1z" style="fill: rgb(45, 159, 209);"/>
						<path class="st43" d="M77.4,545.1c25.5,4.9,50.8,8.8,75.8,12c-12.3,4.7-24.8,9.1-37.5,13.5c-25.2-4.6-50.4-9.9-75.9-16.1&#10;&#9;&#9;&#9;&#9;&#9;&#9;&#9;C52.5,551.7,65,548.5,77.4,545.1z" style="fill: rgb(69, 163, 205);"/>
						<path class="st44" d="M11.8,530.4c-8.1,1.5-16.4,2.7-24.6,4.1c0.2,2,0.4,4,0.6,5.9c17.3,5.2,34.7,9.9,51.9,14.2&#10;&#9;&#9;&#9;&#9;&#9;&#9;&#9;c12.7-2.9,25.3-6.1,37.7-9.4C55.7,540.9,33.8,536,11.8,530.4z" style="fill: rgb(121, 182, 212);"/>
						<path class="st45" d="M1412.8-269.5c-27.2,96.2-68,191-122.1,281.2c17.1,8.6,34.3,17,51.7,25.3&#10;&#9;&#9;&#9;&#9;&#9;&#9;&#9;c29.3-46.3,55.2-93.9,77.8-142.5C1416.7-160.2,1413.8-214.8,1412.8-269.5z" style="fill: rgb(23, 138, 193);"/>
						<path class="st4" d="M1028.2,319.8c106.3-89.3,194.6-194.9,262.5-308.1c17.1,8.6,34.3,17,51.7,25.3&#10;&#9;&#9;&#9;&#9;&#9;&#9;&#9;c-78.7,124.3-180.6,238.1-301.9,331.5C1036.6,352.2,1032.5,335.9,1028.2,319.8z" style="fill: rgb(34, 149, 204);"/>
						<path class="st5" d="M792.8,474.1c85.8-42.3,164.5-94.7,235.3-154.3c4.3,16.1,8.4,32.4,12.3,48.7&#10;&#9;&#9;&#9;&#9;&#9;&#9;&#9;c-79,60.9-166.2,113.1-260.2,153.4C784.8,505.9,789,490,792.8,474.1z" style="fill: rgb(31, 135, 198);"/>
						<path class="st46" d="M599,548.3c67.9-18.9,132.6-44,193.9-74.3c-3.9,16-8.1,31.8-12.6,47.8c-66,28.5-135.5,51.1-207.9,66.8&#10;&#9;&#9;&#9;&#9;&#9;&#9;&#9;C581.5,575.3,590.4,561.9,599,548.3z" style="fill: rgb(10, 74, 164);"/>
						<path class="st47" d="M441.3,579.8c54.2-6.7,106.8-17.3,157.7-31.5c-8.5,13.5-17.4,26.9-26.6,40.3&#10;&#9;&#9;&#9;&#9;&#9;&#9;&#9;c-53.6,11.7-108.9,19.5-165.4,23.1C418.7,601.3,430.1,590.6,441.3,579.8z" style="fill: rgb(6, 37, 130);"/>
						<path class="st48" d="M312.1,587.7c44,0,87-2.7,129.2-7.9c-11.2,10.8-22.6,21.5-34.4,32c-43.6,2.7-88,3-133.2,0.5&#10;&#9;&#9;&#9;&#9;&#9;&#9;&#9;C286.8,604.3,299.6,596.1,312.1,587.7z" style="fill: rgb(51, 159, 213);"/>
						<path class="st49" d="M205.3,582.9c36.1,3.3,71.8,5,106.8,4.9c-12.5,8.4-25.3,16.6-38.3,24.5c-35.8-2-72.1-5.8-108.7-11.4&#10;&#9;&#9;&#9;&#9;&#9;&#9;&#9;C178.7,595,192.1,589.1,205.3,582.9z" style="fill: rgb(0, 57, 107);"/>
						<path class="st50" d="M115.7,570.7c30.1,5.2,60,9.3,89.6,12.2c-13.2,6.2-26.6,12.2-40.3,18c-29.8-4.6-59.9-10.3-90.2-17.4&#10;&#9;&#9;&#9;&#9;&#9;&#9;&#9;C88.7,579.4,102.3,575.1,115.7,570.7z" style="fill: rgb(0, 81, 136);"/>
						<path class="st51" d="M39.8,554.6c25.5,6.2,50.8,11.6,75.9,16.1c-13.4,4.4-27,8.7-40.9,12.8c-25.1-5.9-50.4-12.6-75.8-20.4&#10;&#9;&#9;&#9;&#9;&#9;&#9;&#9;C12.8,560.5,26.4,557.6,39.8,554.6z" style="fill: rgb(22, 101, 151);"/>
						<path class="st52" d="M-12.1,540.4c0.7,6.5,1.2,13.1,1.6,19.6c3.2,0.9,6.5,2.1,9.6,3c13.8-2.6,27.3-5.5,40.7-8.5&#10;&#9;&#9;&#9;&#9;&#9;&#9;&#9;C22.6,550.3,5.2,545.6-12.1,540.4z" style="fill: rgb(127, 187, 217);"/>
						<path class="st53" d="M1420.1-105.6c-22.6,48.6-48.5,96.3-77.8,142.5c20.1,9.5,40.3,18.8,60.7,27.8&#10;&#9;&#9;&#9;&#9;&#9;&#9;&#9;c8.8-13,17.1-26.3,25.3-39.6C1425.9-18.4,1423-62,1420.1-105.6z" style="fill: rgb(1, 82, 137);"/>
						<path class="st6" d="M1040.4,368.4c121.3-93.4,223.3-207.2,301.9-331.5c20.1,9.5,40.3,18.8,60.7,27.8&#10;&#9;&#9;&#9;&#9;&#9;&#9;&#9;c-91.9,137.8-210.6,261.4-350.2,358.9C1049,405.1,1044.8,386.9,1040.4,368.4z" style="fill: rgb(1, 101, 156);"/>
						<path class="st7" d="M780.2,521.8c94.1-40.3,181.3-92.5,260.2-153.4c4.3,18.4,8.5,36.7,12.5,55.2&#10;&#9;&#9;&#9;&#9;&#9;&#9;&#9;c-88.5,61.8-185.3,113.2-288.8,150.8C769.9,557,775.3,539.5,780.2,521.8z" style="fill: rgb(8, 120, 176);"/>
						<path class="st54" d="M572.3,588.7c72.4-15.7,141.8-38.4,207.9-66.8c-4.9,17.7-10.3,35.2-16.1,52.7&#10;&#9;&#9;&#9;&#9;&#9;&#9;&#9;c-71.4,26-145.9,45.4-223,57.2C551.9,617.6,562.3,603.1,572.3,588.7z" style="fill: rgb(0, 44, 88);"/>
						<path class="st55" d="M406.9,611.8c56.5-3.7,111.8-11.4,165.4-23.1c-10,14.5-20.4,28.9-31.2,43.1&#10;&#9;&#9;&#9;&#9;&#9;&#9;&#9;c-56.5,8.7-114.3,13.2-173.3,13.2C381.3,634.2,394.3,623,406.9,611.8z" style="fill: rgb(134, 192, 219);"/>
						<path class="st56" d="M273.8,612.2c45.1,2.6,89.6,2.3,133.2-0.5c-12.6,11.3-25.6,22.4-39,33.2c-45,0-90.6-2.7-136.8-8.2&#10;&#9;&#9;&#9;&#9;&#9;&#9;&#9;C245.6,628.8,259.8,620.6,273.8,612.2z" style="fill: rgb(51, 162, 209);"/>
						<path class="st8" d="M165,600.8c36.7,5.6,72.9,9.4,108.7,11.4c-13.9,8.4-28.2,16.6-42.7,24.5c-36.4-4.3-73.2-10.5-110.3-18.4&#10;&#9;&#9;&#9;&#9;&#9;&#9;&#9;C135.9,612.8,150.6,606.9,165,600.8z" style="fill: rgb(3, 114, 174);"/>
						<path class="st9" d="M74.8,583.5c30.3,7,60.4,12.8,90.2,17.4c-14.5,6.1-29.1,12-44.2,17.5c-29.9-6.5-60-14.2-90.3-23.1&#10;&#9;&#9;&#9;&#9;&#9;&#9;&#9;C45.6,591.5,60.3,587.6,74.8,583.5z" style="fill: rgb(237, 242, 249);"/>
						<path class="st57" d="M-0.9,563.1c-3,0.6-6.2,1.1-9.3,1.7c0.2,5.8,0.4,11.7,0.4,17.7c13.5,4.6,26.9,8.8,40.3,12.8&#10;&#9;&#9;&#9;&#9;&#9;&#9;&#9;c15.1-3.7,29.8-7.6,44.4-11.7C49.7,577.5,24.5,570.8-0.9,563.1z" style="fill: rgb(165, 192, 225);"/>
						<path class="st58" d="M1428.4,25.2c-8.2,13.3-16.6,26.6-25.3,39.6c9.3,4.1,18.6,8.2,27.9,12.2&#10;&#9;&#9;&#9;&#9;&#9;&#9;&#9;C1430.3,59.7,1429.4,42.5,1428.4,25.2z" style="fill: rgb(31, 132, 184);"/>
						<path class="st10" d="M1431.1,79.6c0-0.9-0.1-1.8-0.1-2.7c-9.4-4-18.6-8.1-27.9-12.2c-91.9,137.8-210.6,261.4-350.2,358.9&#10;&#9;&#9;&#9;&#9;&#9;&#9;&#9;c4.4,21,8.6,42,12.5,63.2c142-88.9,266.6-203.7,368.2-334.6C1433,128,1432.2,103.8,1431.1,79.6z" style="fill: rgb(38, 151, 201);"/>
						<path class="st11" d="M764.2,574.5c103.5-37.6,200.3-89,288.8-150.8c4.4,21,8.6,42,12.5,63.2&#10;&#9;&#9;&#9;&#9;&#9;&#9;&#9;c-99.5,62.4-207.4,112-321.6,145.6C751.1,613.2,757.8,593.8,764.2,574.5z" style="fill: rgb(254, 254, 254);"/>
						<path class="st12" d="M541.1,631.7c77.1-11.9,151.7-31.2,223-57.2c-6.3,19.3-13.1,38.7-20.3,58&#10;&#9;&#9;&#9;&#9;&#9;&#9;&#9;c-77.2,22.8-157.2,38.2-239.4,45C517.2,662.5,529.3,647.2,541.1,631.7z" style="fill: rgb(238, 245, 249);"/>
						<path class="st59" d="M367.9,645c59,0,116.8-4.6,173.3-13.2c-11.8,15.5-24,30.7-36.7,45.8c-59.4,5-119.8,5.6-181,1.5&#10;&#9;&#9;&#9;&#9;&#9;&#9;&#9;C338.7,667.9,353.5,656.5,367.9,645z" style="fill: rgb(177, 204, 225);"/>
						<path class="st13" d="M231.1,636.7c46.2,5.5,91.8,8.2,136.8,8.2c-14.4,11.6-29.2,23-44.4,34.1c-46.3-3.2-93-9.1-140.2-18&#10;&#9;&#9;&#9;&#9;&#9;&#9;&#9;C199.6,653.3,215.5,645.1,231.1,636.7z" style="fill: rgb(82, 137, 185);"/>
						<path class="st14" d="M120.8,618.3c37.1,7.9,73.8,14.2,110.3,18.4c-15.6,8.4-31.5,16.6-47.8,24.3&#10;&#9;&#9;&#9;&#9;&#9;&#9;&#9;c-36.8-7-73.9-15.7-111.1-26.3C88.7,629.6,104.9,624.1,120.8,618.3z" style="fill: rgb(6, 123, 186);"/>
						<path class="st15" d="M30.5,595.2c-13.5,3.2-27.2,6.2-41,9c-0.1,1.2-0.2,2.6-0.4,4c27.8,9.9,55.5,18.9,83.1,26.6&#10;&#9;&#9;&#9;&#9;&#9;&#9;&#9;c16.5-5.2,32.7-10.7,48.6-16.4C90.9,611.8,60.8,604.2,30.5,595.2z" style="fill: rgb(0, 89, 159);"/>
						<path class="st60" d="M30.5,595.2c-13.4-4-26.9-8.2-40.3-12.8c0,7.3-0.2,14.5-0.7,21.8C3.3,601.4,17,598.4,30.5,595.2z" style="fill: rgb(45, 111, 195);"/>
						<path class="st16" d="M1433.6,152.2c-101.6,131-226.2,245.7-368.2,334.6c4.5,24.2,8.5,48.4,12.2,72.9&#10;&#9;&#9;&#9;&#9;&#9;&#9;&#9;c131.3-72.6,251.2-166.3,355.3-275.3C1434.9,240.4,1434.8,196.3,1433.6,152.2z" style="fill: rgb(225, 234, 243);"/>
						<path class="st17" d="M743.8,632.5c114.1-33.6,222-83.2,321.6-145.6c4.5,24.2,8.5,48.4,12.2,72.9&#10;&#9;&#9;&#9;&#9;&#9;&#9;&#9;C965.1,622,844.3,668.9,718,696.7C727.2,675.4,735.9,653.9,743.8,632.5z" style="fill: rgb(192, 210, 231);"/>
						<path class="st18" d="M504.5,677.5c82.2-6.8,162.2-22.2,239.4-45c-8,21.5-16.7,42.9-25.9,64.2&#10;&#9;&#9;&#9;&#9;&#9;&#9;&#9;c-83.5,18.6-169.4,28.8-256.8,29.7C476.2,710.4,490.5,694.1,504.5,677.5z" style="fill: rgb(161, 186, 219);"/>
						<path class="st19" d="M323.4,679c61.3,4.1,121.7,3.5,181-1.5c-13.9,16.6-28.3,32.9-43.3,48.9c-62.2,0.6-125.1-3.5-188.5-12.6&#10;&#9;&#9;&#9;&#9;&#9;&#9;&#9;C290.1,702.6,307,690.9,323.4,679z" style="fill: rgb(145, 174, 211);"/>
						<path class="st20" d="M183.3,661.1c47.2,8.8,93.9,14.8,140.2,18c-16.4,11.9-33.3,23.6-50.8,34.7c-47.4-6.7-95-16.4-142.8-28.9&#10;&#9;&#9;&#9;&#9;&#9;&#9;&#9;C148.1,677.2,165.9,669.3,183.3,661.1z" style="fill: rgb(142, 182, 214);"/>
						<path class="st21" d="M72.2,634.8c37.2,10.7,74.3,19.3,111.1,26.3c-17.3,8.2-35.2,16.1-53.4,23.7&#10;&#9;&#9;&#9;&#9;&#9;&#9;&#9;c-37.1-9.9-74.2-21.5-111.4-34.8C36.7,645.4,54.7,640.2,72.2,634.8z" style="fill: rgb(110, 172, 204);"/>
						<path class="st61" d="M-10.9,608.1c-0.3,4.3-0.6,8.4-1.1,12.6c-0.6,5.6-1.1,11.3-1.8,17.2c10.7,4.1,21.5,8.2,32.2,12&#10;&#9;&#9;&#9;&#9;&#9;&#9;&#9;c18.3-4.6,36.2-9.7,53.7-15.2C44.6,627,16.9,618-10.9,608.1z" style="fill: rgb(114, 181, 214);"/>
						<path class="st22" d="M1426.2,399.6c1.5-34.2,4.6-68.3,6.3-102.5c0.2-4.3,0.4-8.5,0.5-12.8&#10;&#9;&#9;&#9;&#9;&#9;&#9;&#9;c-104.2,109-224.1,202.7-355.3,275.3c4.3,28,8.1,56.3,11.3,84.8c120.2-57.5,233.5-131.6,336.8-219.4&#10;&#9;&#9;&#9;&#9;&#9;&#9;&#9;C1425.7,416.7,1425.8,408.2,1426.2,399.6z" style="fill: rgb(172, 200, 238);"/>
						<path class="st23" d="M718,696.7c126.3-27.8,247.1-74.7,359.7-137c4.3,28,8.1,56.3,11.3,84.8C960.9,705.7,825,748,685,767.9&#10;&#9;&#9;&#9;&#9;&#9;&#9;&#9;C696.7,744.3,707.7,720.6,718,696.7z" style="fill: rgb(120, 158, 219);"/>
						<path class="st24" d="M461.2,726.4c87.4-0.9,173.3-11.1,256.8-29.7c-10.3,23.9-21.3,47.6-33,71.2&#10;&#9;&#9;&#9;&#9;&#9;&#9;&#9;c-90.3,12.9-182.4,16.6-275.2,10C427.5,761.1,444.7,743.9,461.2,726.4z" style="fill: rgb(206, 225, 241);"/>
						<path class="st25" d="M272.7,713.7c63.4,9.1,126.3,13.2,188.5,12.6c-16.5,17.5-33.6,34.7-51.4,51.6&#10;&#9;&#9;&#9;&#9;&#9;&#9;&#9;c-64.8-4.7-130-14.2-195.3-29.1C234.4,737.6,253.8,725.9,272.7,713.7z" style="fill: rgb(213, 232, 242);"/>
						<path class="st26" d="M129.9,684.8c47.8,12.5,95.4,22.2,142.8,28.9c-18.9,12.2-38.3,23.9-58.3,35.2&#10;&#9;&#9;&#9;&#9;&#9;&#9;&#9;c-48.2-11-96.5-24.7-144.6-41.5C90.3,700.4,110.3,692.7,129.9,684.8z" style="fill: rgb(197, 224, 237);"/>
						<path class="st27" d="M18.5,650c-11.3,2.9-22.6,5.6-34.2,8.1c-0.5,5.2-1,10.3-1.6,15.7c29,12.3,58,23.6,87,33.6&#10;&#9;&#9;&#9;&#9;&#9;&#9;&#9;c20.5-7,40.6-14.6,60.1-22.5C92.8,674.9,55.7,663.4,18.5,650z" style="fill: rgb(190, 219, 235);"/>
						<path class="st62" d="M-13.7,638c-0.6,6.5-1.3,13.2-2,20.1c11.6-2.4,22.9-5.2,34.2-8.1C7.7,646.2-3,642.1-13.7,638z" style="fill: rgb(193, 221, 233);"/>
						<path class="st28" d="M1433.5,525.2c-4.3-33.3-7.6-66.4-7.8-100.1C1322.5,512.9,1209.2,587,1089,644.5&#10;&#9;&#9;&#9;&#9;&#9;&#9;&#9;c3.8,33,6.9,66.4,9.4,100c115.2-46,226.1-106.5,330.2-179.3C1430,551.8,1431.7,538.4,1433.5,525.2z" style="fill: rgb(255, 255, 255);"/>
						<path class="st29" d="M685,767.9C825,748,960.9,705.7,1089,644.5c3.8,33,6.9,66.4,9.4,100c-146.6,58.4-300.1,93.7-455.8,102.7&#10;&#9;&#9;&#9;&#9;&#9;&#9;&#9;C657.6,821,671.8,794.6,685,767.9z" style="fill: rgb(247, 251, 254);"/>
						<path class="st30" d="M409.7,778c92.8,6.5,184.9,2.9,275.2-10c-13.2,26.6-27.3,53.1-42.4,79.3c-97.5,5.6-195.9,0.8-294.2-15.1&#10;&#9;&#9;&#9;&#9;&#9;&#9;&#9;C369.7,814.6,390.1,796.5,409.7,778z" style="fill: rgb(241, 248, 252);"/>
						<path class="st31" d="M214.4,748.9c65.3,14.9,130.5,24.3,195.3,29.1c-19.6,18.6-40,36.7-61.3,54.2&#10;&#9;&#9;&#9;&#9;&#9;&#9;&#9;c-67.3-10.8-134.5-26.9-201.3-48.4C170.3,772.8,192.6,761.1,214.4,748.9z" style="fill: rgb(236, 246, 251);"/>
						<path class="st32" d="M69.8,707.4c48.2,16.9,96.4,30.6,144.6,41.5c-21.8,12.2-44.1,23.9-67.3,34.8&#10;&#9;&#9;&#9;&#9;&#9;&#9;&#9;c-48.6-15.7-97-34.1-145-55.5C25.2,722,47.8,715,69.8,707.4z" style="fill: rgb(241, 248, 251);"/>
						<path class="st33" d="M-17.3,673.7c-1.6,14.2-3.5,28.6-6.2,42.6c8.5,4.1,17,8.1,25.6,11.9c23.1-6.2,45.7-13.2,67.6-20.8&#10;&#9;&#9;&#9;&#9;&#9;&#9;&#9;C40.7,697.3,11.7,686-17.3,673.7z" style="fill: rgb(250, 252, 253);"/>
						<path class="st34" d="M1429.8,718.8c-1.8-30.1-4.6-60.4-4.7-90.7c-0.2-21.3,1.3-42.2,3.5-62.9&#10;&#9;&#9;&#9;&#9;&#9;&#9;&#9;c-104.2,72.7-215,133.3-330.2,179.3c2.9,39.4,4.9,79.1,5.9,119.2c111.5-35.2,220.7-83.2,325.7-142.4&#10;&#9;&#9;&#9;&#9;&#9;&#9;&#9;C1429.8,720.4,1429.8,719.5,1429.8,718.8z" style="fill: rgb(253, 254, 255);"/>
						<path class="st35" d="M642.6,847.2c155.7-8.8,309.2-44.3,455.8-102.7c2.9,39.4,4.9,79.1,5.9,119.2&#10;&#9;&#9;&#9;&#9;&#9;&#9;&#9;c-169,53.4-343.3,78.2-516.5,71.7C607.2,906.3,625.4,876.9,642.6,847.2z" style="fill: rgb(252, 253, 252);"/>
						<path class="st36" d="M348.4,832.1c98.2,15.8,196.6,20.7,294.2,15.1c-17.1,29.7-35.4,59-54.9,88.1c-105-4-209.8-19.3-313-46.7&#10;&#9;&#9;&#9;&#9;&#9;&#9;&#9;C300.3,870.5,324.9,851.6,348.4,832.1z" style="fill: rgb(252, 254, 254);"/>
						<path class="st28" d="M147.1,783.7c66.7,21.5,134,37.6,201.3,48.4c-23.5,19.5-48.2,38.4-73.7,56.5&#10;&#9;&#9;&#9;&#9;&#9;&#9;&#9;c-69.3-18.4-137.9-42-205.4-71.2C96,807,121.9,795.8,147.1,783.7z" style="fill: rgb(255, 255, 255);"/>
						<path class="st28" d="M2.1,728.2c-9.8,2.7-19.8,5.2-29.8,7.6c-1.7,6.8-3.7,13.7-5.9,20.2c-1.2,3.5-2.5,6.8-3.7,10.3&#10;&#9;&#9;&#9;&#9;&#9;&#9;&#9;c35.2,18.4,70.7,35.6,106.6,51c26.7-10.3,52.7-21.6,77.8-33.6C98.5,768.1,50.1,749.7,2.1,728.2z" style="fill: rgb(255, 255, 255);"/>
						<path class="st28" d="M-23.5,716.3c-1.2,6.7-2.7,13.1-4.3,19.5c10-2.4,20-4.9,29.8-7.6C-6.4,724.4-14.9,720.4-23.5,716.3z" style="fill: rgb(255, 255, 255);"/>
						<path class="st28" d="M930.7,1020.7c35.2,0.3,70.2,0.8,105.3,1.2c22.5-4.3,45-8.8,67.6-13.8c1.6-48.5,1.8-96.6,0.6-144.4&#10;&#9;&#9;&#9;&#9;&#9;&#9;&#9;c-169,53.4-343.3,78.2-516.5,71.7c-18.9,28.3-39.2,56.3-60.5,83.7C661.7,1019,796.3,1019.3,930.7,1020.7z" style="fill: rgb(255, 255, 255);"/>
						<path class="st28" d="M510.8,1019c5.5,0,11,0,16.4,0c21.3-27.4,41.5-55.4,60.5-83.7c-105-4-209.8-19.3-313-46.7&#10;&#9;&#9;&#9;&#9;&#9;&#9;&#9;c-28.5,20.2-58.3,39.6-89.3,57.8c81.3,31.3,164.6,55.5,249,72.6H510.8z" style="fill: rgb(255, 255, 255);"/>
						<path class="st28" d="M69.3,817.4c67.6,29.2,136.1,52.8,205.4,71.2c-28.5,20.2-58.3,39.6-89.3,57.8&#10;&#9;&#9;&#9;&#9;&#9;&#9;&#9;c-70.5-27.2-139.6-60-206.9-97.9C9.7,839.3,40,828.8,69.3,817.4z" style="fill: rgb(255, 255, 255);"/>
						<path class="st28" d="M-37.3,766.4c-1.1,2.6-2,5.3-3,8.1c2.5,22.1,4.4,44.1,5.2,66.4c4.6,2.6,9.1,5.3,13.6,7.8&#10;&#9;&#9;&#9;&#9;&#9;&#9;&#9;c31.1-9.3,61.4-19.8,90.7-31.2C33.4,802-2.2,784.8-37.3,766.4z" style="fill: rgb(255, 255, 255);"/>
						<path class="st28" d="M1103,1022.5c0.2-4.7,0.5-9.6,0.6-14.5c-22.5,5-45,9.6-67.6,13.8&#10;&#9;&#9;&#9;&#9;&#9;&#9;&#9;C1058.4,1022.1,1080.7,1022.4,1103,1022.5z" style="fill: rgb(255, 255, 255);"/>
						<path class="st28" d="M131,1016.1c57.1,4.7,115.4,2.9,172.4,2.9h131.1c-84.5-17-167.7-41.2-249-72.6&#10;&#9;&#9;&#9;&#9;&#9;&#9;&#9;c-34.8,20.4-71.1,39.6-108.9,57.4c4.3,2.3,8.6,4.4,12.9,6.7C103.4,1012.2,117.2,1014,131,1016.1z" style="fill: rgb(255, 255, 255);"/>
						<path class="st28" d="M-21.4,848.6c-4.3,1.4-8.8,2.6-13.2,3.8c0.4,15.5,0.2,31.2-0.5,47c-0.6,12.2-1.7,24.7-2.7,37&#10;&#9;&#9;&#9;&#9;&#9;&#9;&#9;c37.4,24,75.6,46.6,114.5,67.4c37.8-17.8,74.1-37,108.9-57.4C115,919.2,45.9,886.5-21.4,848.6z" style="fill: rgb(255, 255, 255);"/>
					</g>
				</g>
			</g>
		</g>
	</g><radialGradient id="SVGID_17_" cx="355.6505" cy="137.3661" r="1138.7542" gradientUnits="userSpaceOnUse">
				<stop offset="0" style="stop-color:#FFFFFF"/>
				<stop offset="1" style="stop-color:#000000"/>
			</radialGradient><radialGradient id="SVGID_18_" cx="355.4713" cy="137.3661" r="1139.1031" gradientUnits="userSpaceOnUse">
				<stop offset="0" style="stop-color:#FFFFFF"/>
				<stop offset="1" style="stop-color:#000000"/>
			</radialGradient><radialGradient id="SVGID_19_" cx="355.5679" cy="137.0019" r="1139.3206" gradientUnits="userSpaceOnUse">
				<stop offset="0" style="stop-color:#FFFFFF"/>
				<stop offset="1" style="stop-color:#000000"/>
			</radialGradient><radialGradient id="SVGID_20_" cx="355.704" cy="137.3661" r="1138.7992" gradientUnits="userSpaceOnUse">
				<stop offset="0" style="stop-color:#FFFFFF"/>
				<stop offset="1" style="stop-color:#000000"/>
			</radialGradient><radialGradient id="SVGID_21_" cx="355.8534" cy="137.037" r="1138.8843" gradientUnits="userSpaceOnUse">
				<stop offset="0" style="stop-color:#FFFFFF"/>
				<stop offset="1" style="stop-color:#000000"/>
			</radialGradient><radialGradient id="SVGID_22_" cx="355.6792" cy="137.3661" r="1138.9061" gradientUnits="userSpaceOnUse">
				<stop offset="0" style="stop-color:#FFFFFF"/>
				<stop offset="1" style="stop-color:#000000"/>
			</radialGradient>
<path d="M 861.56005859375 377.81591796875 L 861.56005859375 377.81591796875" style="fill: rgb(0, 0, 0); fill-opacity: 1; stroke: rgb(0, 0, 0); stroke-opacity: 1; stroke-width: 0; paint-order: stroke;"/></svg>